<mxfile host="app.diagrams.net" modified="2023-10-24T20:14:45.332Z" agent="Mozilla/5.0 (Windows NT 10.0; Win64; x64) AppleWebKit/537.36 (KHTML, like Gecko) Chrome/118.0.0.0 Safari/537.36" version="21.6.1" etag="kEKlavChMMVX9sPPqNq_" type="github">
  <diagram name="Page-1" id="xUH634Dq2uG7ZH9OHQlJ">
    <mxGraphModel>
      <root>
        <mxCell id="0" />
        <mxCell id="1" parent="0" />
      </root>
    </mxGraphModel>
  </diagram>
</mxfile>
